<?xml version="1.0" encoding="utf-8"?>
<!-- Generator: Adobe Illustrator 21.1.0, SVG Export Plug-In . SVG Version: 6.00 Build 0)  -->
<svg version="1.1" xmlns="http://www.w3.org/2000/svg" xmlns:xlink="http://www.w3.org/1999/xlink" x="0px" y="0px"
	 viewBox="0 0 512 504" style="enable-background:new 0 0 512 504;" xml:space="preserve">
<style type="text/css">
	.st0{fill:#FF0000;}
</style>
<g id="chat">
	<g>
		<g>
			<path d="M425.6,83c-45.1-45.1-105-70-168.8-70S133.1,37.9,88,83C1,170-5.3,309,72.2,403.2c-10.7,21.9-23.3,36.5-37.6,43.5
				C25.9,451,21,460.4,22.4,470c1.5,9.7,8.9,17.2,18.6,18.7c5.3,0.8,11,1.3,16.9,1.3l0,0c29.3,0,60.1-10.1,85.8-27.8
				c34.6,18.6,73.5,28.4,113.1,28.4c63.8,0,123.7-24.8,168.8-69.9s69.9-105.1,69.9-168.8S470.7,128.1,425.6,83z M406.5,401.5
				c-40,40-93.2,62-149.7,62c-37.8,0-74.9-10.1-107.2-29.1c-2.1-1.2-4.5-1.9-6.8-1.9c-2.9,0-5.9,1-8.3,2.8
				c-30.6,23.7-61.4,27.2-74.9,27.5c16.1-12,29.6-30.6,40.9-56.5c2.1-4.8,1.2-10.4-2.3-14.4c-74-83.6-70.1-211,8.9-290
				c40-40,93.2-62,149.7-62s109.7,22,149.7,62C489.1,184.6,489.1,319,406.5,401.5z"/>
			<path d="M356.8,173h-200c-7.5,0-13.5,6-13.5,13.5s6,13.5,13.5,13.5h200c7.5,0,13.5-6,13.5-13.5S364.2,173,356.8,173z"/>
			<path d="M356.8,238.3h-200c-7.5,0-13.5,6-13.5,13.5c0,7.5,6,13.5,13.5,13.5h200c7.5,0,13.5-6,13.5-13.5
				C370.3,244.3,364.2,238.3,356.8,238.3z"/>
			<path d="M356.8,303.6h-200c-7.5,0-13.5,6-13.5,13.5s6,13.5,13.5,13.5h200c7.5,0,13.5-6,13.5-13.5S364.2,303.6,356.8,303.6z"/>
		</g>
	</g>
</g>
<g id="chat-colored">
	<g>
		<g>
			<path class="st0" d="M425.6,83c-45.1-45.1-105-70-168.8-70S133.1,37.9,88,83C1,170-5.3,309,72.2,403.2
				c-10.7,21.9-23.3,36.5-37.6,43.5C25.9,451,21,460.4,22.4,470c1.5,9.7,8.9,17.2,18.6,18.7c5.3,0.8,11,1.3,16.9,1.3l0,0
				c29.3,0,60.1-10.1,85.8-27.8c34.6,18.6,73.5,28.4,113.1,28.4c63.8,0,123.7-24.8,168.8-69.9s69.9-105.1,69.9-168.8
				S470.7,128.1,425.6,83z M406.5,401.5c-40,40-93.2,62-149.7,62c-37.8,0-74.9-10.1-107.2-29.1c-2.1-1.2-4.5-1.9-6.8-1.9
				c-2.9,0-5.9,1-8.3,2.8c-30.6,23.7-61.4,27.2-74.9,27.5c16.1-12,29.6-30.6,40.9-56.5c2.1-4.8,1.2-10.4-2.3-14.4
				c-74-83.6-70.1-211,8.9-290c40-40,93.2-62,149.7-62s109.7,22,149.7,62C489.1,184.6,489.1,319,406.5,401.5z"/>
			<path class="st0" d="M356.8,173h-200c-7.5,0-13.5,6-13.5,13.5s6,13.5,13.5,13.5h200c7.5,0,13.5-6,13.5-13.5S364.2,173,356.8,173z
				"/>
			<path class="st0" d="M356.8,238.3h-200c-7.5,0-13.5,6-13.5,13.5c0,7.5,6,13.5,13.5,13.5h200c7.5,0,13.5-6,13.5-13.5
				C370.3,244.3,364.2,238.3,356.8,238.3z"/>
			<path class="st0" d="M356.8,303.6h-200c-7.5,0-13.5,6-13.5,13.5s6,13.5,13.5,13.5h200c7.5,0,13.5-6,13.5-13.5
				S364.2,303.6,356.8,303.6z"/>
		</g>
	</g>
</g>
</svg>
