<?xml version="1.0" encoding="utf-8"?>
<!-- Generator: Adobe Illustrator 21.0.0, SVG Export Plug-In . SVG Version: 6.00 Build 0)  -->
<svg version="1.1" xmlns="http://www.w3.org/2000/svg" xmlns:xlink="http://www.w3.org/1999/xlink" x="0px" y="0px"
	 viewBox="0 0 486.2 486.2" style="enable-background:new 0 0 486.2 486.2;" xml:space="preserve">
<style type="text/css">
	.st0{fill:#FC0000;}
</style>
<g id="home">
	<g>
		<path d="M481.7,220.5L252.9,15.9c-0.4-0.4-0.8-0.7-1.3-1c-5-4.8-13-5-18.3-0.3L4.5,219.2c-5.6,5-6,13.5-1.1,19.1
			c2.7,3,6.4,4.5,10.1,4.5c3.2,0,6.4-1.1,9-3.4l41.2-36.9v7.2v106.8v124.6c0,18.7,15.2,34,34,34c0.3,0,0.5,0,0.8,0s0.5,0,0.8,0h70.6
			c17.6,0,31.9-14.3,31.9-31.9V321.9c0-2.7,2.2-4.9,4.9-4.9h72.9c2.7,0,4.9,2.2,4.9,4.9v121.3c0,17.6,14.3,31.9,31.9,31.9h72.2
			c19,0,34-18.7,34-42.6V321.3v-34v-83.5l41.2,36.9c2.6,2.3,5.8,3.4,9,3.4c3.7,0,7.4-1.5,10.1-4.5
			C487.7,234,487.2,225.5,481.7,220.5z M395.5,287.2v34v111.1c0,9.7-4.8,15.6-7,15.6h-72.2c-2.7,0-4.9-2.2-4.9-4.9V321.9
			c0-17.6-14.3-31.9-31.9-31.9h-72.9c-17.6,0-31.9,14.3-31.9,31.9v121.3c0,2.7-2.2,4.9-4.9,4.9H99.2c-0.3,0-0.5,0-0.8,0
			s-0.5,0-0.8,0c-3.8,0-7-3.1-7-7V316.4V209.6v-31.3L242.4,42.7l153.1,136.9V287.2L395.5,287.2z"/>
	</g>
</g>
<g id="home-colored">
	<g>
		<path class="st0" d="M481.7,220.5L252.9,15.9c-0.4-0.4-0.8-0.7-1.3-1c-5-4.8-13-5-18.3-0.3L4.5,219.2c-5.6,5-6,13.5-1.1,19.1
			c2.7,3,6.4,4.5,10.1,4.5c3.2,0,6.4-1.1,9-3.4l41.2-36.9v7.2v106.8v124.6c0,18.7,15.2,34,34,34c0.3,0,0.5,0,0.8,0s0.5,0,0.8,0h70.6
			c17.6,0,31.9-14.3,31.9-31.9V321.9c0-2.7,2.2-4.9,4.9-4.9h72.9c2.7,0,4.9,2.2,4.9,4.9v121.3c0,17.6,14.3,31.9,31.9,31.9h72.2
			c19,0,34-18.7,34-42.6V321.3v-34v-83.5l41.2,36.9c2.6,2.3,5.8,3.4,9,3.4c3.7,0,7.4-1.5,10.1-4.5
			C487.7,234,487.2,225.5,481.7,220.5z M395.5,287.2v34v111.1c0,9.7-4.8,15.6-7,15.6h-72.2c-2.7,0-4.9-2.2-4.9-4.9V321.9
			c0-17.6-14.3-31.9-31.9-31.9h-72.9c-17.6,0-31.9,14.3-31.9,31.9v121.3c0,2.7-2.2,4.9-4.9,4.9H99.2c-0.3,0-0.5,0-0.8,0
			s-0.5,0-0.8,0c-3.8,0-7-3.1-7-7V316.4V209.6v-31.3L242.4,42.7l153.1,136.9V287.2L395.5,287.2z"/>
	</g>
</g>
</svg>
