<?xml version="1.0" encoding="utf-8"?>
<!-- Generator: Adobe Illustrator 21.0.0, SVG Export Plug-In . SVG Version: 6.00 Build 0)  -->
<svg version="1.1" xmlns="http://www.w3.org/2000/svg" xmlns:xlink="http://www.w3.org/1999/xlink" x="0px" y="0px"
	 viewBox="0 0 501 484" style="enable-background:new 0 0 501 484;" xml:space="preserve">
<style type="text/css">
	.st0{fill:#FF0000;}
</style>
<g id="magnifying-glass">
	<g>
		<path d="M478,445L368.4,335.4c29.4-33.8,47.2-77.9,47.2-126.1C415.6,103.2,329.4,17,223.4,17C117.3,17,31,103.3,31,209.3
			s86.3,192.3,192.3,192.3c48.2,0,92.3-17.8,126.1-47.2L459,464c2.6,2.6,6.1,4,9.5,4s6.9-1.3,9.5-4C483.3,458.8,483.3,450.2,478,445
			z M58,209.3C58,118.1,132.1,44,223.3,44s165.3,74.2,165.3,165.3s-74.1,165.4-165.3,165.4S58,300.5,58,209.3z"/>
	</g>
</g>
<g id="magnifying-glass-colored">
	<g>
		<path class="st0" d="M478,445L368.4,335.4c29.4-33.8,47.2-77.9,47.2-126.1C415.6,103.2,329.4,17,223.4,17
			C117.3,17,31,103.3,31,209.3s86.3,192.3,192.3,192.3c48.2,0,92.3-17.8,126.1-47.2L459,464c2.6,2.6,6.1,4,9.5,4s6.9-1.3,9.5-4
			C483.3,458.8,483.3,450.2,478,445z M58,209.3C58,118.1,132.1,44,223.3,44s165.3,74.2,165.3,165.3s-74.1,165.4-165.3,165.4
			S58,300.5,58,209.3z"/>
	</g>
</g>
</svg>
