<?xml version="1.0" encoding="utf-8"?>
<!-- Generator: Adobe Illustrator 21.0.0, SVG Export Plug-In . SVG Version: 6.00 Build 0)  -->
<svg version="1.1" xmlns="http://www.w3.org/2000/svg" xmlns:xlink="http://www.w3.org/1999/xlink" x="0px" y="0px"
	 viewBox="0 0 483 508" style="enable-background:new 0 0 483 508;" xml:space="preserve">
<style type="text/css">
	.st0{fill:#FF0000;}
</style>
<g id="music">
	<g>
		<path d="M453.9,118.1V26.5c0-4.3-2.1-8.4-5.5-10.9c-3.5-2.5-8-3.3-12.1-2l-272.9,86.7c-5.6,1.8-9.4,7-9.4,12.9v91.7v0.1v175.3
			c-14.3-9.9-32.6-15.3-51.8-15.3c-20.3,0-39.6,6.1-54.3,17.1c-15.8,11.9-24.5,28-24.5,45.5s8.7,33.6,24.5,45.5
			c14.7,11,33.9,17.1,54.3,17.1s39.6-6.1,54.3-17.1c15.8-11.9,24.5-28,24.5-45.5V214.8l245.9-78.2v156.6
			c-14.3-9.9-32.6-15.3-51.8-15.3c-20.3,0-39.6,6.1-54.3,17.1c-15.8,11.9-24.5,28-24.5,45.5s8.7,33.6,24.5,45.5
			c14.7,11,33.9,17.1,54.3,17.1s39.6-6.1,54.3-17.1c15.8-11.9,24.5-28,24.5-45.5V118.1C453.9,118.1,453.9,118.1,453.9,118.1z
			 M102.2,463.2c-28.1,0-51.8-16.3-51.8-35.6c0-19.3,23.7-35.6,51.8-35.6s51.8,16.3,51.8,35.6C154,447,130.3,463.2,102.2,463.2z
			 M181,186.4V123l245.9-78.1v63.4L181,186.4z M375.2,376.1c-28.1,0-51.8-16.3-51.8-35.6c0-19.3,23.7-35.6,51.8-35.6
			s51.8,16.3,51.8,35.6C426.9,359.8,403.2,376.1,375.2,376.1z"/>
	</g>
</g>
<g id="music-colored">
	<g>
		<path class="st0" d="M453.9,118.1V26.5c0-4.3-2.1-8.4-5.5-10.9c-3.5-2.5-8-3.3-12.1-2l-272.9,86.7c-5.6,1.8-9.4,7-9.4,12.9v91.7
			v0.1v175.3c-14.3-9.9-32.6-15.3-51.8-15.3c-20.3,0-39.6,6.1-54.3,17.1c-15.8,11.9-24.5,28-24.5,45.5s8.7,33.6,24.5,45.5
			c14.7,11,33.9,17.1,54.3,17.1s39.6-6.1,54.3-17.1c15.8-11.9,24.5-28,24.5-45.5V214.8l245.9-78.2v156.6
			c-14.3-9.9-32.6-15.3-51.8-15.3c-20.3,0-39.6,6.1-54.3,17.1c-15.8,11.9-24.5,28-24.5,45.5s8.7,33.6,24.5,45.5
			c14.7,11,33.9,17.1,54.3,17.1s39.6-6.1,54.3-17.1c15.8-11.9,24.5-28,24.5-45.5V118.1C453.9,118.1,453.9,118.1,453.9,118.1z
			 M102.2,463.2c-28.1,0-51.8-16.3-51.8-35.6c0-19.3,23.7-35.6,51.8-35.6s51.8,16.3,51.8,35.6C154,447,130.3,463.2,102.2,463.2z
			 M181,186.4V123l245.9-78.1v63.4L181,186.4z M375.2,376.1c-28.1,0-51.8-16.3-51.8-35.6c0-19.3,23.7-35.6,51.8-35.6
			s51.8,16.3,51.8,35.6C426.9,359.8,403.2,376.1,375.2,376.1z"/>
	</g>
</g>
</svg>
