<?xml version="1.0" encoding="utf-8"?>
<!-- Generator: Adobe Illustrator 21.0.0, SVG Export Plug-In . SVG Version: 6.00 Build 0)  -->
<svg version="1.1" xmlns="http://www.w3.org/2000/svg" xmlns:xlink="http://www.w3.org/1999/xlink" x="0px" y="0px"
	 viewBox="0 0 486.4 529" style="enable-background:new 0 0 486.4 529;" xml:space="preserve">
<style type="text/css">
	.st0{fill:#FF0000;}
</style>
<g id="trash-can">
	<g>
		<g>
			<path d="M446,92H344.8V75.5c0-29.5-24-53.5-53.5-53.5h-96.2c-29.5,0-53.5,24-53.5,53.5V92H40.4c-7.5,0-13.5,6-13.5,13.5
				s6,13.5,13.5,13.5h24.4v317.2c0,39.8,32.4,72.2,72.2,72.2h212.4c39.8,0,72.2-32.4,72.2-72.2V119H446c7.5,0,13.5-6,13.5-13.5
				S453.5,92,446,92z M168.6,75.5c0-14.6,11.9-26.5,26.5-26.5h96.2c14.6,0,26.5,11.9,26.5,26.5V92H168.6V75.5z M394.6,436.2
				c0,24.9-20.3,45.2-45.2,45.2H137c-24.9,0-45.2-20.3-45.2-45.2V119h302.9v317.2H394.6z"/>
			<path d="M243.2,433c7.5,0,13.5-6,13.5-13.5V180.9c0-7.5-6-13.5-13.5-13.5s-13.5,6-13.5,13.5v238.5
				C229.7,426.9,235.7,433,243.2,433z"/>
			<path d="M155.1,418.1c7.5,0,13.5-6,13.5-13.5V195.7c0-7.5-6-13.5-13.5-13.5s-13.5,6-13.5,13.5v208.9
				C141.6,412.1,147.7,418.1,155.1,418.1z"/>
			<path d="M331.3,418.1c7.5,0,13.5-6,13.5-13.5V195.7c0-7.5-6-13.5-13.5-13.5s-13.5,6-13.5,13.5v208.9
				C317.8,412.1,323.8,418.1,331.3,418.1z"/>
		</g>
	</g>
</g>
<g id="trash-can-colored">
	<g>
		<g>
			<path class="st0" d="M446,92H344.8V75.5c0-29.5-24-53.5-53.5-53.5h-96.2c-29.5,0-53.5,24-53.5,53.5V92H40.4
				c-7.5,0-13.5,6-13.5,13.5s6,13.5,13.5,13.5h24.4v317.2c0,39.8,32.4,72.2,72.2,72.2h212.4c39.8,0,72.2-32.4,72.2-72.2V119H446
				c7.5,0,13.5-6,13.5-13.5S453.5,92,446,92z M168.6,75.5c0-14.6,11.9-26.5,26.5-26.5h96.2c14.6,0,26.5,11.9,26.5,26.5V92H168.6
				V75.5z M394.6,436.2c0,24.9-20.3,45.2-45.2,45.2H137c-24.9,0-45.2-20.3-45.2-45.2V119h302.9v317.2H394.6z"/>
			<path class="st0" d="M243.2,433c7.5,0,13.5-6,13.5-13.5V180.9c0-7.5-6-13.5-13.5-13.5s-13.5,6-13.5,13.5v238.5
				C229.7,426.9,235.7,433,243.2,433z"/>
			<path class="st0" d="M155.1,418.1c7.5,0,13.5-6,13.5-13.5V195.7c0-7.5-6-13.5-13.5-13.5s-13.5,6-13.5,13.5v208.9
				C141.6,412.1,147.7,418.1,155.1,418.1z"/>
			<path class="st0" d="M331.3,418.1c7.5,0,13.5-6,13.5-13.5V195.7c0-7.5-6-13.5-13.5-13.5s-13.5,6-13.5,13.5v208.9
				C317.8,412.1,323.8,418.1,331.3,418.1z"/>
		</g>
	</g>
</g>
</svg>
